<svg xmlns="http://www.w3.org/2000/svg" xmlns:xlink="http://www.w3.org/1999/xlink" id="Layer_1" x="0px" y="0px" width="100%" viewBox="0 0 1280 160" xml:space="preserve"><path fill="#FFFFFF" opacity="1.000000" stroke="none" d="M1217.000000,161.000000  C811.333313,161.000000 406.166656,161.000000 1.000000,161.000000  C1.000000,107.666664 1.000000,54.333332 1.000000,1.000000  C427.666656,1.000000 854.333313,1.000000 1281.000000,1.000000  C1281.000000,54.333332 1281.000000,107.666664 1281.000000,161.000000  C1259.833374,161.000000 1238.666626,161.000000 1217.000000,161.000000 M1206.578613,79.950447  C1206.546387,78.041786 1206.514160,76.133125 1206.814087,73.410873  C1206.447998,71.302162 1206.401733,69.074051 1205.665894,67.103416  C1198.980835,49.199268 1187.369751,41.234459 1168.130005,41.230843  C1121.320312,41.222038 1074.510620,41.218666 1027.700928,41.229824  C931.749878,41.252697 835.798767,41.298637 739.847717,41.312592  C635.567688,41.327759 531.287598,41.327118 427.007568,41.315483  C317.230621,41.303234 207.453644,41.240322 97.676834,41.350117  C93.135239,41.354656 88.393211,42.314568 84.093407,43.823460  C72.588432,47.860794 63.067173,60.650078 63.075371,72.005051  C63.122517,76.296379 63.169662,80.587708 63.004917,85.683662  C65.468765,101.342834 80.240211,113.743172 96.954865,113.776688  C133.108276,113.849190 169.262070,113.712845 205.415695,113.707161  C294.883392,113.693108 384.351105,113.689949 473.818817,113.709892  C557.622253,113.728569 641.425720,113.812378 725.229187,113.812378  C805.366882,113.812370 885.504578,113.713112 965.642273,113.710175  C1033.617798,113.707680 1101.593384,113.738396 1169.568604,113.884331  C1176.411865,113.899017 1182.887695,112.901337 1188.639526,109.245186  C1199.048462,102.628906 1206.447510,93.958664 1206.578613,79.950447 z"></path><path fill="#010101" opacity="1.000000" stroke="none" d="M1206.481934,74.224472  C1206.514160,76.133125 1206.546387,78.041786 1206.246094,80.541580  C1204.895020,84.460342 1204.208496,87.936111 1202.801270,91.090317  C1196.232910,105.812714 1184.227295,112.283005 1168.642944,112.297699  C1087.837036,112.373909 1007.031067,112.273949 926.225159,112.276154  C812.097046,112.279282 697.968933,112.336853 583.840820,112.336617  C459.216309,112.336365 334.591766,112.290184 209.967239,112.278290  C172.813126,112.274750 135.656509,112.573662 98.506157,112.211212  C84.473938,112.074310 73.183571,106.016312 66.756348,92.771477  C65.498169,90.178673 64.392708,87.511765 63.216805,84.879036  C63.169662,80.587708 63.122517,76.296379 63.415096,71.366592  C64.008698,70.307770 64.412888,69.914642 64.494736,69.463089  C67.502205,52.870583 82.452675,42.818005 98.348648,42.801212  C219.338806,42.673393 340.329193,42.770184 461.319489,42.765392  C590.142639,42.760292 718.965759,42.715939 847.788879,42.697659  C918.783142,42.687588 989.777466,42.695297 1060.771729,42.696129  C1097.102417,42.696552 1133.434814,42.490414 1169.762817,42.804493  C1184.234497,42.929611 1195.810181,48.944809 1202.131958,62.756161  C1203.829834,66.465446 1205.045044,70.395676 1206.481934,74.224472 z"></path><path fill="#676767" opacity="1.000000" stroke="none" d="M1206.647949,73.817673  C1205.045044,70.395676 1203.829834,66.465446 1202.131958,62.756161  C1195.810181,48.944809 1184.234497,42.929611 1169.762817,42.804493  C1133.434814,42.490414 1097.102417,42.696552 1060.771729,42.696129  C989.777466,42.695297 918.783142,42.687588 847.788879,42.697659  C718.965759,42.715939 590.142639,42.760292 461.319489,42.765392  C340.329193,42.770184 219.338806,42.673393 98.348648,42.801212  C82.452675,42.818005 67.502205,52.870583 64.494736,69.463089  C64.412888,69.914642 64.008698,70.307770 63.456322,70.910156  C63.067173,60.650078 72.588432,47.860794 84.093407,43.823460  C88.393211,42.314568 93.135239,41.354656 97.676834,41.350117  C207.453644,41.240322 317.230621,41.303234 427.007568,41.315483  C531.287598,41.327118 635.567688,41.327759 739.847717,41.312592  C835.798767,41.298637 931.749878,41.252697 1027.700928,41.229824  C1074.510620,41.218666 1121.320312,41.222038 1168.130005,41.230843  C1187.369751,41.234459 1198.980835,49.199268 1205.665894,67.103416  C1206.401733,69.074051 1206.447998,71.302162 1206.647949,73.817673 z"></path><path fill="#676767" opacity="1.000000" stroke="none" d="M63.110863,85.281349  C64.392708,87.511765 65.498169,90.178673 66.756348,92.771477  C73.183571,106.016312 84.473938,112.074310 98.506157,112.211212  C135.656509,112.573662 172.813126,112.274750 209.967239,112.278290  C334.591766,112.290184 459.216309,112.336365 583.840820,112.336617  C697.968933,112.336853 812.097046,112.279282 926.225159,112.276154  C1007.031067,112.273949 1087.837036,112.373909 1168.642944,112.297699  C1184.227295,112.283005 1196.232910,105.812714 1202.801270,91.090317  C1204.208496,87.936111 1204.895020,84.460342 1206.198242,80.948166  C1206.447510,93.958664 1199.048462,102.628906 1188.639526,109.245186  C1182.887695,112.901337 1176.411865,113.899017 1169.568604,113.884331  C1101.593384,113.738396 1033.617798,113.707680 965.642273,113.710175  C885.504578,113.713112 805.366882,113.812370 725.229187,113.812378  C641.425720,113.812378 557.622253,113.728569 473.818817,113.709892  C384.351105,113.689949 294.883392,113.693108 205.415695,113.707161  C169.262070,113.712845 133.108276,113.849190 96.954865,113.776688  C80.240211,113.743172 65.468765,101.342834 63.110863,85.281349 z"></path></svg>